<svg xmlns="http://www.w3.org/2000/svg">
    <symbol id="twitter-icon-dark" viewBox="0 0 24 20" fill="none">
        <path d="M24 2.55654C23.1169 2.94873 22.168 3.21203 21.1724 3.3327C22.1899 2.72384 22.9688 1.75844 23.3363 0.609283C22.3846 1.17426 21.3288 1.58291 20.2098 1.80506C19.313 0.84789 18.0322 0.25 16.6171 0.25C13.8965 0.25 11.6915 2.45232 11.6915 5.173C11.6915 5.5597 11.7353 5.93544 11.8176 6.29473C7.72575 6.08903 4.09736 4.1308 1.67021 1.14958C1.24786 1.87637 1.00377 2.72384 1.00377 3.62616C1.00377 5.33481 1.87316 6.84051 3.19232 7.72363C2.38601 7.69895 1.62633 7.47679 0.962633 7.10654V7.16962C0.962633 9.5557 2.66027 11.5441 4.9119 11.9966C4.50051 12.1091 4.06445 12.1694 3.61467 12.1694C3.29654 12.1694 2.98937 12.1392 2.69044 12.0816C3.31574 14.0371 5.13404 15.4605 7.28694 15.5017C5.60302 16.8209 3.48303 17.608 1.17381 17.608C0.77614 17.608 0.386699 17.5861 0 17.5395C2.18032 18.9354 4.76654 19.75 7.54748 19.75C16.6034 19.75 21.5564 12.2489 21.5564 5.74346C21.5564 5.52954 21.5509 5.31835 21.5427 5.10717C22.5053 4.41055 23.3418 3.54388 24 2.55654Z" fill="#1B1A1A"/>
    </symbol>
    <symbol id="instagram-icon-dark" viewBox="0 0 24 24" fill="none">
        <path d="M12 5.76825C8.5638 5.76825 5.76825 8.5638 5.76825 12C5.76825 15.4362 8.5638 18.2293 12 18.2293C15.4362 18.2293 18.2293 15.4338 18.2293 12C18.2317 8.5638 15.4362 5.76825 12 5.76825ZM12 15.8536C9.87422 15.8536 8.14641 14.1258 8.14641 12C8.14641 9.87422 9.87422 8.14641 12 8.14641C14.1258 8.14641 15.8536 9.87422 15.8536 12C15.8536 14.1258 14.1258 15.8536 12 15.8536ZM17.0936 0H6.90637C3.09889 0 0 3.09889 0 6.90637V17.0936C0 20.9011 3.09889 24 6.90637 24H17.0936C20.9011 24 24 20.9011 24 17.0936V6.90637C24 3.09889 20.9035 0 17.0936 0ZM21.6243 17.0936C21.6243 19.5907 19.5907 21.6218 17.0936 21.6218H6.90637C4.4093 21.6218 2.37816 19.5907 2.37816 17.0936V6.90637C2.37816 4.4093 4.4093 2.37816 6.90637 2.37816H17.0936C19.5907 2.37816 21.6218 4.4093 21.6218 6.90637V17.0936H21.6243ZM18.3167 3.96764C17.4188 3.96764 16.6859 4.69808 16.6859 5.59838C16.6859 6.49626 17.4164 7.22912 18.3167 7.22912C19.2146 7.22912 19.9474 6.49869 19.9474 5.59838C19.9474 4.69808 19.2146 3.96764 18.3167 3.96764Z" fill="#1B1A1A"/>
    </symbol>
    <symbol id="facebook-icon-dark" viewBox="0 0 12 24" fill="none" >
        <path d="M11.625 7.7714H7.79015V5.2806C7.79015 4.34518 8.41822 4.12573 8.85815 4.12573H11.5586V0.0137159L7.83442 0C3.70352 0 2.76556 3.06686 2.76556 5.03098V7.7714H0.375V12.0069H2.76556V24H7.79292V12.0096H11.1851L11.625 7.7714Z" fill="#1B1A1A"/>
    </symbol>

    <symbol id="sketching-icon" viewBox="0 0 117 102" fill="none">
        <path fill-rule="evenodd" clip-rule="evenodd" d="M58.5 0C90.8087 0 117 22.8335 117 51C117 79.1665 90.8087 102 58.5 102C26.1913 102 0 79.1665 0 51C0 22.8335 26.1913 0 58.5 0ZM60.1012 41.6732L49.8425 42.666C47.5648 51.2711 45.8528 56.4007 41.2941 61.0347L43.5429 62.9922C48.9124 57.7643 50.5196 51.7654 52.441 45.2385L58.918 44.6123L65.8448 50.6462L65.1258 56.2883C57.6333 57.9622 50.7452 59.3622 44.7454 64.0397L46.9941 66C52.3121 62.0289 58.2023 60.5389 68.0806 58.5533L69.2203 49.6169L60.1012 41.6732ZM57.8219 51.6011C57.0124 50.871 55.8137 50.5782 54.6865 50.8352C53.5593 51.0922 52.679 51.859 52.384 52.8409C52.0889 53.8229 52.4251 54.8671 53.2632 55.5723C54.5326 56.6211 56.529 56.5985 57.7651 55.5214C59.0012 54.4442 59.0264 52.7051 57.8219 51.6011ZM64.0909 37.205C63.875 37.0173 63.5559 36.952 63.2666 37.0361C62.9773 37.1202 62.7673 37.3394 62.724 37.6024L62.3822 39.6876L71.4996 47.6299L73.8757 47.307C74.176 47.2666 74.4247 47.0826 74.519 46.8311C74.6133 46.5795 74.5372 46.3032 74.3223 46.1162L64.0909 37.205Z" fill="#403E3B"/>
    </symbol>
    <symbol id="finalizing-icon" viewBox="0 0 117 102" fill="none">
        <path fill-rule="evenodd" clip-rule="evenodd" d="M58.5 0C90.8087 0 117 22.8335 117 51C117 79.1665 90.8087 102 58.5 102C26.1913 102 0 79.1665 0 51C0 22.8335 26.1913 0 58.5 0ZM51.1078 37L44.7353 44V65H57.4804V44L51.1078 37ZM71.8186 39.8H62.2598C61.3799 39.8 60.6667 40.4268 60.6667 41.2V63.6C60.6667 64.3732 61.3799 65 62.2598 65H71.8186C72.6985 65 73.4118 64.3732 73.4118 63.6V59.4H70.2255V56.6H73.4118V53.8H68.6323V51H73.4118V48.2H70.2255V45.4H73.4118V41.2C73.4118 40.4268 72.6985 39.8 71.8186 39.8ZM54.2941 59.4V62.2H47.9216V59.4H54.2941Z" fill="#403E3B"/>
    </symbol>
    <symbol id="building-icon" viewBox="0 0 117 102" fill="none">
        <path fill-rule="evenodd" clip-rule="evenodd" d="M58.5 0C90.8087 0 117 22.8335 117 51C117 79.1665 90.8087 102 58.5 102C26.1913 102 0 79.1665 0 51C0 22.8335 26.1913 0 58.5 0ZM60.9222 39.1052C60.7411 38.9964 60.5095 38.9702 60.3017 39.035L47.1914 43.1222C46.6557 43.2894 46.2993 43.726 46.2995 44.2148V59.6752H43.5882V62H73.4118V59.6752H70.7005V48.8889C70.7007 48.3884 70.3271 47.9439 69.7733 47.7858L61.2112 45.3389V39.5814C61.2113 39.3918 61.1034 39.214 60.9222 39.1052ZM58.5 42.0702V59.6752H49.0107V45.0297L58.5 42.0702ZM61.2112 47.7893L67.9893 49.7271V59.6752H61.2112V47.7893Z" fill="#403E3B"/>
    </symbol>
</svg>
